M48
;DRILL file {KiCad 5.0.2-1.fc29} date Mon 04 Feb 2019 20:54:34 GMT
;FORMAT={-:-/ absolute / inch / decimal}
FMAT,2
INCH,TZ
T1C0.0315
T2C0.0354
T3C0.0394
T4C0.1260
%
G90
G05
T1
X5.3Y-3.9
X5.6Y-3.9
X5.3Y-4.05
X5.6Y-4.05
X4.85Y-3.9
X5.15Y-3.9
X5.25Y-4.95
X5.25Y-5.25
X4.4Y-4.05
X4.7Y-4.05
X4.4Y-3.75
X4.7Y-3.75
X4.85Y-4.2
X5.15Y-4.2
X4.4Y-4.35
X4.4Y-4.45
X4.4Y-4.55
X4.4Y-4.65
X4.4Y-4.75
X4.4Y-4.85
X4.4Y-4.95
X4.4Y-5.05
X4.4Y-5.15
X4.4Y-5.25
X4.4Y-5.35
X4.4Y-5.45
X4.4Y-5.55
X4.4Y-5.65
X5.Y-4.35
X5.Y-4.45
X5.Y-4.55
X5.Y-4.65
X5.Y-4.75
X5.Y-4.85
X5.Y-4.95
X5.Y-5.05
X5.Y-5.15
X5.Y-5.25
X5.Y-5.35
X5.Y-5.45
X5.Y-5.55
X5.Y-5.65
X5.25Y-4.45
X5.25Y-4.75
X5.3Y-3.75
X5.6Y-3.75
X3.75Y-3.95
X3.75Y-4.25
X3.6Y-4.75
X3.6Y-4.85
X3.6Y-4.95
X3.6Y-5.05
X3.6Y-5.15
X3.6Y-5.25
X3.6Y-5.35
X3.6Y-5.45
X3.6Y-5.55
X3.6Y-5.65
X3.9Y-4.75
X3.9Y-4.85
X3.9Y-4.95
X3.9Y-5.05
X3.9Y-5.15
X3.9Y-5.25
X3.9Y-5.35
X3.9Y-5.45
X3.9Y-5.55
X3.9Y-5.65
X5.3Y-4.2
X5.6Y-4.2
X4.85Y-4.05
X5.15Y-4.05
X4.4Y-3.9
X4.7Y-3.9
X4.4Y-4.2
X4.7Y-4.2
X4.85Y-3.75
X5.15Y-3.75
T2
X3.75Y-3.75
X3.75Y-3.85
T3
X4.1Y-3.75
X4.1Y-3.85
X4.1Y-3.95
X4.1Y-4.05
X4.1Y-4.15
X4.1Y-4.25
X4.1Y-4.35
X4.1Y-4.45
X4.1Y-4.55
X4.1Y-4.65
X4.1Y-4.75
X4.1Y-4.85
X4.1Y-4.95
X4.1Y-5.05
X4.1Y-5.15
X4.1Y-5.25
X4.1Y-5.35
X4.1Y-5.45
X4.1Y-5.55
X4.1Y-5.65
X4.2Y-3.75
X4.2Y-3.85
X4.2Y-3.95
X4.2Y-4.05
X4.2Y-4.15
X4.2Y-4.25
X4.2Y-4.35
X4.2Y-4.45
X4.2Y-4.55
X4.2Y-4.65
X4.2Y-4.75
X4.2Y-4.85
X4.2Y-4.95
X4.2Y-5.05
X4.2Y-5.15
X4.2Y-5.25
X4.2Y-5.35
X4.2Y-5.45
X4.2Y-5.55
X4.2Y-5.65
X5.5Y-4.9
X5.5Y-4.9902
X5.5Y-5.0803
X5.5Y-5.1705
X5.5Y-5.2606
X5.578Y-4.8549
X5.578Y-4.9451
X5.578Y-5.0352
X5.578Y-5.1254
X5.578Y-5.2156
X5.6559Y-4.9
X5.6559Y-4.9902
X5.6559Y-5.0803
X5.6559Y-5.1705
X5.6559Y-5.2606
X3.Y-3.75
X3.Y-3.85
X3.Y-3.95
X3.Y-4.05
X3.Y-4.15
X3.Y-4.25
X3.Y-4.35
X3.Y-4.45
X3.Y-4.55
X3.Y-4.65
X3.Y-4.75
X3.Y-4.85
X3.Y-4.95
X3.Y-5.05
X3.Y-5.15
X3.Y-5.25
X3.Y-5.35
X3.Y-5.45
X3.1Y-3.75
X3.1Y-3.85
X3.1Y-3.95
X3.1Y-4.05
X3.1Y-4.15
X3.1Y-4.25
X3.1Y-4.35
X3.1Y-4.45
X3.1Y-4.55
X3.1Y-4.65
X3.1Y-4.75
X3.1Y-4.85
X3.1Y-4.95
X3.1Y-5.05
X3.1Y-5.15
X3.1Y-5.25
X3.1Y-5.35
X3.1Y-5.45
X3.3Y-3.75
X3.3Y-3.85
X3.3Y-3.95
X3.3Y-4.05
X3.3Y-4.15
X3.3Y-4.25
X3.3Y-4.35
X3.3Y-4.45
X3.3Y-4.55
X3.3Y-4.65
X3.3Y-4.75
X3.3Y-4.85
X3.3Y-4.95
X3.3Y-5.05
X3.3Y-5.15
X3.3Y-5.25
X3.3Y-5.35
X3.3Y-5.45
X3.3Y-5.55
X3.3Y-5.65
X3.4Y-3.75
X3.4Y-3.85
X3.4Y-3.95
X3.4Y-4.05
X3.4Y-4.15
X3.4Y-4.25
X3.4Y-4.35
X3.4Y-4.45
X3.4Y-4.55
X3.4Y-4.65
X3.4Y-4.75
X3.4Y-4.85
X3.4Y-4.95
X3.4Y-5.05
X3.4Y-5.15
X3.4Y-5.25
X3.4Y-5.35
X3.4Y-5.45
X3.4Y-5.55
X3.4Y-5.65
T4
X5.5807Y-4.5778
X5.5807Y-5.562
T0
M30
