G04 #@! TF.GenerationSoftware,KiCad,Pcbnew,5.0.2-1.fc29*
G04 #@! TF.CreationDate,2019-02-04T20:54:41+00:00*
G04 #@! TF.ProjectId,daughter,64617567-6874-4657-922e-6b696361645f,rev?*
G04 #@! TF.SameCoordinates,Original*
G04 #@! TF.FileFunction,Copper,L1,Top*
G04 #@! TF.FilePolarity,Positive*
%FSLAX46Y46*%
G04 Gerber Fmt 4.6, Leading zero omitted, Abs format (unit mm)*
G04 Created by KiCad (PCBNEW 5.0.2-1.fc29) date Mon 04 Feb 2019 20:54:41 GMT*
%MOMM*%
%LPD*%
G01*
G04 APERTURE LIST*
G04 #@! TA.AperFunction,ComponentPad*
%ADD10C,1.600000*%
G04 #@! TD*
G04 #@! TA.AperFunction,ComponentPad*
%ADD11O,1.600000X1.600000*%
G04 #@! TD*
G04 #@! TA.AperFunction,ComponentPad*
%ADD12R,1.600000X1.600000*%
G04 #@! TD*
G04 #@! TA.AperFunction,ComponentPad*
%ADD13R,1.700000X1.700000*%
G04 #@! TD*
G04 #@! TA.AperFunction,ComponentPad*
%ADD14O,1.700000X1.700000*%
G04 #@! TD*
G04 #@! TA.AperFunction,ComponentPad*
%ADD15C,4.000000*%
G04 #@! TD*
G04 #@! TA.AperFunction,ComponentPad*
%ADD16R,1.800000X1.800000*%
G04 #@! TD*
G04 #@! TA.AperFunction,ComponentPad*
%ADD17C,1.800000*%
G04 #@! TD*
G04 #@! TA.AperFunction,Conductor*
%ADD18C,0.250000*%
G04 #@! TD*
G04 APERTURE END LIST*
D10*
G04 #@! TO.P,R14,1*
G04 #@! TO.N,Net-(J5-Pad14)*
X133350000Y-120650000D03*
D11*
G04 #@! TO.P,R14,2*
G04 #@! TO.N,/VSYNC*
X133350000Y-113030000D03*
G04 #@! TD*
G04 #@! TO.P,R11,2*
G04 #@! TO.N,/B*
X142240000Y-99060000D03*
D10*
G04 #@! TO.P,R11,1*
G04 #@! TO.N,/B1*
X134620000Y-99060000D03*
G04 #@! TD*
G04 #@! TO.P,R5,1*
G04 #@! TO.N,/G3*
X123190000Y-106680000D03*
D11*
G04 #@! TO.P,R5,2*
G04 #@! TO.N,/G*
X130810000Y-106680000D03*
G04 #@! TD*
D10*
G04 #@! TO.P,R3,1*
G04 #@! TO.N,/R1*
X111760000Y-99060000D03*
D11*
G04 #@! TO.P,R3,2*
G04 #@! TO.N,/R*
X119380000Y-99060000D03*
G04 #@! TD*
G04 #@! TO.P,R4,2*
G04 #@! TO.N,/R*
X119380000Y-95250000D03*
D10*
G04 #@! TO.P,R4,1*
G04 #@! TO.N,/R0*
X111760000Y-95250000D03*
G04 #@! TD*
D12*
G04 #@! TO.P,U1,1*
G04 #@! TO.N,/A15*
X111760000Y-110490000D03*
D11*
G04 #@! TO.P,U1,15*
G04 #@! TO.N,/D3*
X127000000Y-143510000D03*
G04 #@! TO.P,U1,2*
G04 #@! TO.N,/A12*
X111760000Y-113030000D03*
G04 #@! TO.P,U1,16*
G04 #@! TO.N,/D4*
X127000000Y-140970000D03*
G04 #@! TO.P,U1,3*
G04 #@! TO.N,/A7*
X111760000Y-115570000D03*
G04 #@! TO.P,U1,17*
G04 #@! TO.N,/D5*
X127000000Y-138430000D03*
G04 #@! TO.P,U1,4*
G04 #@! TO.N,/A6*
X111760000Y-118110000D03*
G04 #@! TO.P,U1,18*
G04 #@! TO.N,/D6*
X127000000Y-135890000D03*
G04 #@! TO.P,U1,5*
G04 #@! TO.N,/A5*
X111760000Y-120650000D03*
G04 #@! TO.P,U1,19*
G04 #@! TO.N,/D7*
X127000000Y-133350000D03*
G04 #@! TO.P,U1,6*
G04 #@! TO.N,/A4*
X111760000Y-123190000D03*
G04 #@! TO.P,U1,20*
G04 #@! TO.N,/CE_n*
X127000000Y-130810000D03*
G04 #@! TO.P,U1,7*
G04 #@! TO.N,/A3*
X111760000Y-125730000D03*
G04 #@! TO.P,U1,21*
G04 #@! TO.N,/A10*
X127000000Y-128270000D03*
G04 #@! TO.P,U1,8*
G04 #@! TO.N,/A2*
X111760000Y-128270000D03*
G04 #@! TO.P,U1,22*
G04 #@! TO.N,/OE_n*
X127000000Y-125730000D03*
G04 #@! TO.P,U1,9*
G04 #@! TO.N,/A1*
X111760000Y-130810000D03*
G04 #@! TO.P,U1,23*
G04 #@! TO.N,/A11*
X127000000Y-123190000D03*
G04 #@! TO.P,U1,10*
G04 #@! TO.N,/A0*
X111760000Y-133350000D03*
G04 #@! TO.P,U1,24*
G04 #@! TO.N,/A9*
X127000000Y-120650000D03*
G04 #@! TO.P,U1,11*
G04 #@! TO.N,/D0*
X111760000Y-135890000D03*
G04 #@! TO.P,U1,25*
G04 #@! TO.N,/A8*
X127000000Y-118110000D03*
G04 #@! TO.P,U1,12*
G04 #@! TO.N,/D1*
X111760000Y-138430000D03*
G04 #@! TO.P,U1,26*
G04 #@! TO.N,/A13*
X127000000Y-115570000D03*
G04 #@! TO.P,U1,13*
G04 #@! TO.N,/D2*
X111760000Y-140970000D03*
G04 #@! TO.P,U1,27*
G04 #@! TO.N,/A14*
X127000000Y-113030000D03*
G04 #@! TO.P,U1,14*
G04 #@! TO.N,/0V*
X111760000Y-143510000D03*
G04 #@! TO.P,U1,28*
G04 #@! TO.N,/5V*
X127000000Y-110490000D03*
G04 #@! TD*
G04 #@! TO.P,R6,2*
G04 #@! TO.N,/G*
X130810000Y-102870000D03*
D10*
G04 #@! TO.P,R6,1*
G04 #@! TO.N,/G2*
X123190000Y-102870000D03*
G04 #@! TD*
G04 #@! TO.P,R10,1*
G04 #@! TO.N,/B2*
X134620000Y-102870000D03*
D11*
G04 #@! TO.P,R10,2*
G04 #@! TO.N,/B*
X142240000Y-102870000D03*
G04 #@! TD*
D12*
G04 #@! TO.P,J1,1*
G04 #@! TO.N,/POT0*
X91440000Y-120650000D03*
D11*
G04 #@! TO.P,J1,11*
G04 #@! TO.N,/5V*
X99060000Y-143510000D03*
G04 #@! TO.P,J1,2*
G04 #@! TO.N,/POT2*
X91440000Y-123190000D03*
G04 #@! TO.P,J1,12*
G04 #@! TO.N,/PIN7*
X99060000Y-140970000D03*
G04 #@! TO.P,J1,3*
G04 #@! TO.N,/POT4*
X91440000Y-125730000D03*
G04 #@! TO.P,J1,13*
G04 #@! TO.N,/PIN5*
X99060000Y-138430000D03*
G04 #@! TO.P,J1,4*
G04 #@! TO.N,/POT6*
X91440000Y-128270000D03*
G04 #@! TO.P,J1,14*
G04 #@! TO.N,/PIN3*
X99060000Y-135890000D03*
G04 #@! TO.P,J1,5*
G04 #@! TO.N,/OTSTB_n*
X91440000Y-130810000D03*
G04 #@! TO.P,J1,15*
G04 #@! TO.N,/PIN1*
X99060000Y-133350000D03*
G04 #@! TO.P,J1,6*
G04 #@! TO.N,/PIN0*
X91440000Y-133350000D03*
G04 #@! TO.P,J1,16*
G04 #@! TO.N,/0V*
X99060000Y-130810000D03*
G04 #@! TO.P,J1,7*
G04 #@! TO.N,/PIN2*
X91440000Y-135890000D03*
G04 #@! TO.P,J1,17*
G04 #@! TO.N,/POT7*
X99060000Y-128270000D03*
G04 #@! TO.P,J1,8*
G04 #@! TO.N,/PIN4*
X91440000Y-138430000D03*
G04 #@! TO.P,J1,18*
G04 #@! TO.N,/POT5*
X99060000Y-125730000D03*
G04 #@! TO.P,J1,9*
G04 #@! TO.N,/PIN6*
X91440000Y-140970000D03*
G04 #@! TO.P,J1,19*
G04 #@! TO.N,/POT3*
X99060000Y-123190000D03*
G04 #@! TO.P,J1,10*
G04 #@! TO.N,/INSTB*
X91440000Y-143510000D03*
G04 #@! TO.P,J1,20*
G04 #@! TO.N,/POT1*
X99060000Y-120650000D03*
G04 #@! TD*
D13*
G04 #@! TO.P,J4,1*
G04 #@! TO.N,/B0*
X104140000Y-95250000D03*
D14*
G04 #@! TO.P,J4,2*
G04 #@! TO.N,/B1*
X106680000Y-95250000D03*
G04 #@! TO.P,J4,3*
G04 #@! TO.N,/B2*
X104140000Y-97790000D03*
G04 #@! TO.P,J4,4*
G04 #@! TO.N,/B3*
X106680000Y-97790000D03*
G04 #@! TO.P,J4,5*
G04 #@! TO.N,/G0*
X104140000Y-100330000D03*
G04 #@! TO.P,J4,6*
G04 #@! TO.N,/G1*
X106680000Y-100330000D03*
G04 #@! TO.P,J4,7*
G04 #@! TO.N,/G2*
X104140000Y-102870000D03*
G04 #@! TO.P,J4,8*
G04 #@! TO.N,/G3*
X106680000Y-102870000D03*
G04 #@! TO.P,J4,9*
G04 #@! TO.N,/R0*
X104140000Y-105410000D03*
G04 #@! TO.P,J4,10*
G04 #@! TO.N,/R1*
X106680000Y-105410000D03*
G04 #@! TO.P,J4,11*
G04 #@! TO.N,/5V*
X104140000Y-107950000D03*
G04 #@! TO.P,J4,12*
G04 #@! TO.N,/0V*
X106680000Y-107950000D03*
G04 #@! TO.P,J4,13*
G04 #@! TO.N,/R2*
X104140000Y-110490000D03*
G04 #@! TO.P,J4,14*
G04 #@! TO.N,/R3*
X106680000Y-110490000D03*
G04 #@! TO.P,J4,15*
G04 #@! TO.N,/HSYNC*
X104140000Y-113030000D03*
G04 #@! TO.P,J4,16*
G04 #@! TO.N,/VSYNC*
X106680000Y-113030000D03*
G04 #@! TO.P,J4,17*
G04 #@! TO.N,/A7*
X104140000Y-115570000D03*
G04 #@! TO.P,J4,18*
G04 #@! TO.N,/A8*
X106680000Y-115570000D03*
G04 #@! TO.P,J4,19*
G04 #@! TO.N,/A6*
X104140000Y-118110000D03*
G04 #@! TO.P,J4,20*
G04 #@! TO.N,/A9*
X106680000Y-118110000D03*
G04 #@! TO.P,J4,21*
G04 #@! TO.N,/A5*
X104140000Y-120650000D03*
G04 #@! TO.P,J4,22*
G04 #@! TO.N,/A11*
X106680000Y-120650000D03*
G04 #@! TO.P,J4,23*
G04 #@! TO.N,/A4*
X104140000Y-123190000D03*
G04 #@! TO.P,J4,24*
G04 #@! TO.N,/OE_n*
X106680000Y-123190000D03*
G04 #@! TO.P,J4,25*
G04 #@! TO.N,/A3*
X104140000Y-125730000D03*
G04 #@! TO.P,J4,26*
G04 #@! TO.N,/A10*
X106680000Y-125730000D03*
G04 #@! TO.P,J4,27*
G04 #@! TO.N,/A2*
X104140000Y-128270000D03*
G04 #@! TO.P,J4,28*
G04 #@! TO.N,/CE_n*
X106680000Y-128270000D03*
G04 #@! TO.P,J4,29*
G04 #@! TO.N,/3V3*
X104140000Y-130810000D03*
G04 #@! TO.P,J4,30*
G04 #@! TO.N,/0V*
X106680000Y-130810000D03*
G04 #@! TO.P,J4,31*
G04 #@! TO.N,/A1*
X104140000Y-133350000D03*
G04 #@! TO.P,J4,32*
G04 #@! TO.N,/D7*
X106680000Y-133350000D03*
G04 #@! TO.P,J4,33*
G04 #@! TO.N,/A0*
X104140000Y-135890000D03*
G04 #@! TO.P,J4,34*
G04 #@! TO.N,/D6*
X106680000Y-135890000D03*
G04 #@! TO.P,J4,35*
G04 #@! TO.N,/D0*
X104140000Y-138430000D03*
G04 #@! TO.P,J4,36*
G04 #@! TO.N,/D5*
X106680000Y-138430000D03*
G04 #@! TO.P,J4,37*
G04 #@! TO.N,/D1*
X104140000Y-140970000D03*
G04 #@! TO.P,J4,38*
G04 #@! TO.N,/D4*
X106680000Y-140970000D03*
G04 #@! TO.P,J4,39*
G04 #@! TO.N,/D2*
X104140000Y-143510000D03*
G04 #@! TO.P,J4,40*
G04 #@! TO.N,/D3*
X106680000Y-143510000D03*
G04 #@! TD*
D11*
G04 #@! TO.P,R9,2*
G04 #@! TO.N,/B*
X142240000Y-106680000D03*
D10*
G04 #@! TO.P,R9,1*
G04 #@! TO.N,/B3*
X134620000Y-106680000D03*
G04 #@! TD*
D11*
G04 #@! TO.P,R13,2*
G04 #@! TO.N,/HSYNC*
X133350000Y-125730000D03*
D10*
G04 #@! TO.P,R13,1*
G04 #@! TO.N,Net-(J5-Pad13)*
X133350000Y-133350000D03*
G04 #@! TD*
D14*
G04 #@! TO.P,J2,40*
G04 #@! TO.N,/PIN7*
X86360000Y-143510000D03*
G04 #@! TO.P,J2,39*
G04 #@! TO.N,/INSTB*
X83820000Y-143510000D03*
G04 #@! TO.P,J2,38*
G04 #@! TO.N,/PIN5*
X86360000Y-140970000D03*
G04 #@! TO.P,J2,37*
G04 #@! TO.N,/PIN6*
X83820000Y-140970000D03*
G04 #@! TO.P,J2,36*
G04 #@! TO.N,/PIN3*
X86360000Y-138430000D03*
G04 #@! TO.P,J2,35*
G04 #@! TO.N,/PIN4*
X83820000Y-138430000D03*
G04 #@! TO.P,J2,34*
G04 #@! TO.N,/PIN1*
X86360000Y-135890000D03*
G04 #@! TO.P,J2,33*
G04 #@! TO.N,/PIN2*
X83820000Y-135890000D03*
G04 #@! TO.P,J2,32*
G04 #@! TO.N,/POT7*
X86360000Y-133350000D03*
G04 #@! TO.P,J2,31*
G04 #@! TO.N,/PIN0*
X83820000Y-133350000D03*
G04 #@! TO.P,J2,30*
G04 #@! TO.N,/0V*
X86360000Y-130810000D03*
G04 #@! TO.P,J2,29*
G04 #@! TO.N,/3V3*
X83820000Y-130810000D03*
G04 #@! TO.P,J2,28*
G04 #@! TO.N,/POT5*
X86360000Y-128270000D03*
G04 #@! TO.P,J2,27*
G04 #@! TO.N,/OTSTB_n*
X83820000Y-128270000D03*
G04 #@! TO.P,J2,26*
G04 #@! TO.N,/POT3*
X86360000Y-125730000D03*
G04 #@! TO.P,J2,25*
G04 #@! TO.N,/POT6*
X83820000Y-125730000D03*
G04 #@! TO.P,J2,24*
G04 #@! TO.N,/POT1*
X86360000Y-123190000D03*
G04 #@! TO.P,J2,23*
G04 #@! TO.N,/POT4*
X83820000Y-123190000D03*
G04 #@! TO.P,J2,22*
G04 #@! TO.N,/A12*
X86360000Y-120650000D03*
G04 #@! TO.P,J2,21*
G04 #@! TO.N,/POT2*
X83820000Y-120650000D03*
G04 #@! TO.P,J2,20*
G04 #@! TO.N,/A13*
X86360000Y-118110000D03*
G04 #@! TO.P,J2,19*
G04 #@! TO.N,/POT0*
X83820000Y-118110000D03*
G04 #@! TO.P,J2,18*
G04 #@! TO.N,/A14*
X86360000Y-115570000D03*
G04 #@! TO.P,J2,17*
G04 #@! TO.N,/ERROR_n*
X83820000Y-115570000D03*
G04 #@! TO.P,J2,16*
G04 #@! TO.N,/A15*
X86360000Y-113030000D03*
G04 #@! TO.P,J2,15*
G04 #@! TO.N,/SLCT*
X83820000Y-113030000D03*
G04 #@! TO.P,J2,14*
G04 #@! TO.N,/BUSY*
X86360000Y-110490000D03*
G04 #@! TO.P,J2,13*
G04 #@! TO.N,/PE*
X83820000Y-110490000D03*
G04 #@! TO.P,J2,12*
G04 #@! TO.N,/0V*
X86360000Y-107950000D03*
G04 #@! TO.P,J2,11*
G04 #@! TO.N,/5V*
X83820000Y-107950000D03*
G04 #@! TO.P,J2,10*
G04 #@! TO.N,/PRD7*
X86360000Y-105410000D03*
G04 #@! TO.P,J2,9*
G04 #@! TO.N,/PRD6*
X83820000Y-105410000D03*
G04 #@! TO.P,J2,8*
G04 #@! TO.N,/PRD5*
X86360000Y-102870000D03*
G04 #@! TO.P,J2,7*
G04 #@! TO.N,/PRD4*
X83820000Y-102870000D03*
G04 #@! TO.P,J2,6*
G04 #@! TO.N,/PRD3*
X86360000Y-100330000D03*
G04 #@! TO.P,J2,5*
G04 #@! TO.N,/PRD2*
X83820000Y-100330000D03*
G04 #@! TO.P,J2,4*
G04 #@! TO.N,/PRD1*
X86360000Y-97790000D03*
G04 #@! TO.P,J2,3*
G04 #@! TO.N,/PRD0*
X83820000Y-97790000D03*
G04 #@! TO.P,J2,2*
G04 #@! TO.N,/STROBE_n*
X86360000Y-95250000D03*
D13*
G04 #@! TO.P,J2,1*
G04 #@! TO.N,/LED*
X83820000Y-95250000D03*
G04 #@! TD*
D10*
G04 #@! TO.P,R12,1*
G04 #@! TO.N,/B0*
X134620000Y-95250000D03*
D11*
G04 #@! TO.P,R12,2*
G04 #@! TO.N,/B*
X142240000Y-95250000D03*
G04 #@! TD*
D12*
G04 #@! TO.P,J5,1*
G04 #@! TO.N,/R*
X139700000Y-124460000D03*
D10*
G04 #@! TO.P,J5,2*
G04 #@! TO.N,/G*
X139700000Y-126750000D03*
G04 #@! TO.P,J5,3*
G04 #@! TO.N,/B*
X139700000Y-129040000D03*
G04 #@! TO.P,J5,4*
G04 #@! TO.N,Net-(J5-Pad4)*
X139700000Y-131330000D03*
G04 #@! TO.P,J5,5*
G04 #@! TO.N,/0V*
X139700000Y-133620000D03*
G04 #@! TO.P,J5,6*
X141680000Y-123315000D03*
G04 #@! TO.P,J5,7*
X141680000Y-125605000D03*
G04 #@! TO.P,J5,8*
X141680000Y-127895000D03*
G04 #@! TO.P,J5,9*
G04 #@! TO.N,Net-(J5-Pad9)*
X141680000Y-130185000D03*
G04 #@! TO.P,J5,10*
G04 #@! TO.N,/0V*
X141680000Y-132475000D03*
G04 #@! TO.P,J5,11*
G04 #@! TO.N,Net-(J5-Pad11)*
X143660000Y-124460000D03*
G04 #@! TO.P,J5,12*
G04 #@! TO.N,Net-(J5-Pad12)*
X143660000Y-126750000D03*
G04 #@! TO.P,J5,13*
G04 #@! TO.N,Net-(J5-Pad13)*
X143660000Y-129040000D03*
G04 #@! TO.P,J5,14*
G04 #@! TO.N,Net-(J5-Pad14)*
X143660000Y-131330000D03*
G04 #@! TO.P,J5,15*
G04 #@! TO.N,Net-(J5-Pad15)*
X143660000Y-133620000D03*
D15*
G04 #@! TO.P,J5,0*
G04 #@! TO.N,Net-(J5-Pad0)*
X141750000Y-141275000D03*
X141750000Y-116275000D03*
G04 #@! TD*
D11*
G04 #@! TO.P,R8,2*
G04 #@! TO.N,/G*
X130810000Y-95250000D03*
D10*
G04 #@! TO.P,R8,1*
G04 #@! TO.N,/G0*
X123190000Y-95250000D03*
G04 #@! TD*
G04 #@! TO.P,R7,1*
G04 #@! TO.N,/G1*
X123190000Y-99060000D03*
D11*
G04 #@! TO.P,R7,2*
G04 #@! TO.N,/G*
X130810000Y-99060000D03*
G04 #@! TD*
G04 #@! TO.P,R2,2*
G04 #@! TO.N,/R*
X119380000Y-102870000D03*
D10*
G04 #@! TO.P,R2,1*
G04 #@! TO.N,/R2*
X111760000Y-102870000D03*
G04 #@! TD*
G04 #@! TO.P,R1,1*
G04 #@! TO.N,/R3*
X111760000Y-106680000D03*
D11*
G04 #@! TO.P,R1,2*
G04 #@! TO.N,/R*
X119380000Y-106680000D03*
G04 #@! TD*
D14*
G04 #@! TO.P,J3,36*
G04 #@! TO.N,Net-(J3-Pad36)*
X78740000Y-138430000D03*
G04 #@! TO.P,J3,35*
G04 #@! TO.N,Net-(J3-Pad35)*
X76200000Y-138430000D03*
G04 #@! TO.P,J3,34*
G04 #@! TO.N,Net-(J3-Pad34)*
X78740000Y-135890000D03*
G04 #@! TO.P,J3,33*
G04 #@! TO.N,/0V*
X76200000Y-135890000D03*
G04 #@! TO.P,J3,32*
G04 #@! TO.N,Net-(J3-Pad32)*
X78740000Y-133350000D03*
G04 #@! TO.P,J3,31*
G04 #@! TO.N,/0V*
X76200000Y-133350000D03*
G04 #@! TO.P,J3,30*
X78740000Y-130810000D03*
G04 #@! TO.P,J3,29*
G04 #@! TO.N,Net-(J3-Pad29)*
X76200000Y-130810000D03*
G04 #@! TO.P,J3,28*
G04 #@! TO.N,/ERROR_n*
X78740000Y-128270000D03*
G04 #@! TO.P,J3,27*
G04 #@! TO.N,Net-(J3-Pad27)*
X76200000Y-128270000D03*
G04 #@! TO.P,J3,26*
G04 #@! TO.N,Net-(J3-Pad26)*
X78740000Y-125730000D03*
G04 #@! TO.P,J3,25*
G04 #@! TO.N,/SLCT*
X76200000Y-125730000D03*
G04 #@! TO.P,J3,24*
G04 #@! TO.N,/0V*
X78740000Y-123190000D03*
G04 #@! TO.P,J3,23*
G04 #@! TO.N,/PE*
X76200000Y-123190000D03*
G04 #@! TO.P,J3,22*
G04 #@! TO.N,/0V*
X78740000Y-120650000D03*
G04 #@! TO.P,J3,21*
G04 #@! TO.N,/BUSY*
X76200000Y-120650000D03*
G04 #@! TO.P,J3,20*
G04 #@! TO.N,/0V*
X78740000Y-118110000D03*
G04 #@! TO.P,J3,19*
G04 #@! TO.N,Net-(J3-Pad19)*
X76200000Y-118110000D03*
G04 #@! TO.P,J3,18*
G04 #@! TO.N,/0V*
X78740000Y-115570000D03*
G04 #@! TO.P,J3,17*
G04 #@! TO.N,/PRD7*
X76200000Y-115570000D03*
G04 #@! TO.P,J3,16*
G04 #@! TO.N,/0V*
X78740000Y-113030000D03*
G04 #@! TO.P,J3,15*
G04 #@! TO.N,/PRD6*
X76200000Y-113030000D03*
G04 #@! TO.P,J3,14*
G04 #@! TO.N,/0V*
X78740000Y-110490000D03*
G04 #@! TO.P,J3,13*
G04 #@! TO.N,/PRD5*
X76200000Y-110490000D03*
G04 #@! TO.P,J3,12*
G04 #@! TO.N,/0V*
X78740000Y-107950000D03*
G04 #@! TO.P,J3,11*
G04 #@! TO.N,/PRD4*
X76200000Y-107950000D03*
G04 #@! TO.P,J3,10*
G04 #@! TO.N,/0V*
X78740000Y-105410000D03*
G04 #@! TO.P,J3,9*
G04 #@! TO.N,/PRD3*
X76200000Y-105410000D03*
G04 #@! TO.P,J3,8*
G04 #@! TO.N,/0V*
X78740000Y-102870000D03*
G04 #@! TO.P,J3,7*
G04 #@! TO.N,/PRD2*
X76200000Y-102870000D03*
G04 #@! TO.P,J3,6*
G04 #@! TO.N,/0V*
X78740000Y-100330000D03*
G04 #@! TO.P,J3,5*
G04 #@! TO.N,/PRD1*
X76200000Y-100330000D03*
G04 #@! TO.P,J3,4*
G04 #@! TO.N,/0V*
X78740000Y-97790000D03*
G04 #@! TO.P,J3,3*
G04 #@! TO.N,/PRD0*
X76200000Y-97790000D03*
G04 #@! TO.P,J3,2*
G04 #@! TO.N,/0V*
X78740000Y-95250000D03*
D13*
G04 #@! TO.P,J3,1*
G04 #@! TO.N,/STROBE_n*
X76200000Y-95250000D03*
G04 #@! TD*
D16*
G04 #@! TO.P,D1,1*
G04 #@! TO.N,Net-(D1-Pad1)*
X95250000Y-97790000D03*
D17*
G04 #@! TO.P,D1,2*
G04 #@! TO.N,/LED*
X95250000Y-95250000D03*
G04 #@! TD*
D10*
G04 #@! TO.P,R15,1*
G04 #@! TO.N,Net-(D1-Pad1)*
X95250000Y-100330000D03*
D11*
G04 #@! TO.P,R15,2*
G04 #@! TO.N,/0V*
X95250000Y-107950000D03*
G04 #@! TD*
D18*
G04 #@! TO.N,/POT2*
X91440000Y-123190000D02*
X90314700Y-123190000D01*
X83820000Y-120650000D02*
X84995300Y-120650000D01*
X84995300Y-120650000D02*
X84995300Y-121017400D01*
X84995300Y-121017400D02*
X85803200Y-121825300D01*
X85803200Y-121825300D02*
X88950000Y-121825300D01*
X88950000Y-121825300D02*
X90314700Y-123190000D01*
G04 #@! TO.N,/POT4*
X83820000Y-123190000D02*
X84995300Y-123190000D01*
X84995300Y-123190000D02*
X84995300Y-123557400D01*
X84995300Y-123557400D02*
X85803200Y-124365300D01*
X85803200Y-124365300D02*
X87046900Y-124365300D01*
X87046900Y-124365300D02*
X88411600Y-125730000D01*
X88411600Y-125730000D02*
X91440000Y-125730000D01*
G04 #@! TO.N,/POT6*
X91440000Y-128270000D02*
X90314700Y-128270000D01*
X83820000Y-125730000D02*
X84995300Y-125730000D01*
X84995300Y-125730000D02*
X84995300Y-126097400D01*
X84995300Y-126097400D02*
X85803200Y-126905300D01*
X85803200Y-126905300D02*
X88950000Y-126905300D01*
X88950000Y-126905300D02*
X90314700Y-128270000D01*
G04 #@! TO.N,/OTSTB_n*
X91440000Y-130810000D02*
X90314700Y-130810000D01*
X83820000Y-128270000D02*
X84995300Y-128270000D01*
X84995300Y-128270000D02*
X84995300Y-128637400D01*
X84995300Y-128637400D02*
X85803200Y-129445300D01*
X85803200Y-129445300D02*
X88950000Y-129445300D01*
X88950000Y-129445300D02*
X90314700Y-130810000D01*
G04 #@! TO.N,/PIN2*
X83820000Y-135890000D02*
X84995300Y-135890000D01*
X84995300Y-135890000D02*
X84995300Y-136257300D01*
X84995300Y-136257300D02*
X85820200Y-137082200D01*
X85820200Y-137082200D02*
X86980000Y-137082200D01*
X86980000Y-137082200D02*
X88172200Y-135890000D01*
X88172200Y-135890000D02*
X91440000Y-135890000D01*
G04 #@! TO.N,/INSTB*
X91440000Y-143510000D02*
X90314700Y-143510000D01*
X83820000Y-143510000D02*
X84995300Y-143510000D01*
X84995300Y-143510000D02*
X84995300Y-143877300D01*
X84995300Y-143877300D02*
X85808900Y-144690900D01*
X85808900Y-144690900D02*
X89133800Y-144690900D01*
X89133800Y-144690900D02*
X90314700Y-143510000D01*
G04 #@! TO.N,/5V*
X127000000Y-110490000D02*
X125874700Y-110490000D01*
X104094700Y-107950000D02*
X105364700Y-109220000D01*
X105364700Y-109220000D02*
X124604700Y-109220000D01*
X124604700Y-109220000D02*
X125874700Y-110490000D01*
X104140000Y-107950000D02*
X104094700Y-107950000D01*
X103552400Y-107950000D02*
X102964700Y-107950000D01*
X103552400Y-107950000D02*
X104094700Y-107950000D01*
X83820000Y-107950000D02*
X84995300Y-107950000D01*
X84995300Y-107950000D02*
X84995300Y-108317300D01*
X84995300Y-108317300D02*
X85803300Y-109125300D01*
X85803300Y-109125300D02*
X101789400Y-109125300D01*
X101789400Y-109125300D02*
X102964700Y-107950000D01*
G04 #@! TO.N,/PIN5*
X99060000Y-138430000D02*
X97934700Y-138430000D01*
X86360000Y-140970000D02*
X87535300Y-140970000D01*
X87535300Y-140970000D02*
X88950000Y-139555300D01*
X88950000Y-139555300D02*
X96809400Y-139555300D01*
X96809400Y-139555300D02*
X97934700Y-138430000D01*
G04 #@! TO.N,/PIN3*
X86360000Y-138430000D02*
X87535300Y-138430000D01*
X99060000Y-135890000D02*
X97934700Y-135890000D01*
X87535300Y-138430000D02*
X88710600Y-137254700D01*
X88710600Y-137254700D02*
X96570000Y-137254700D01*
X96570000Y-137254700D02*
X97934700Y-135890000D01*
G04 #@! TO.N,/PIN1*
X86360000Y-135890000D02*
X87535300Y-135890000D01*
X99060000Y-133350000D02*
X97934700Y-133350000D01*
X87535300Y-135890000D02*
X88710600Y-134714700D01*
X88710600Y-134714700D02*
X96570000Y-134714700D01*
X96570000Y-134714700D02*
X97934700Y-133350000D01*
G04 #@! TO.N,/0V*
X106680000Y-130810000D02*
X105504700Y-130810000D01*
X99060000Y-130810000D02*
X100185300Y-130810000D01*
X100185300Y-130810000D02*
X101360600Y-129634700D01*
X101360600Y-129634700D02*
X104696800Y-129634700D01*
X104696800Y-129634700D02*
X105504700Y-130442600D01*
X105504700Y-130442600D02*
X105504700Y-130810000D01*
X86360000Y-130810000D02*
X85184700Y-130810000D01*
X78740000Y-130810000D02*
X79915300Y-130810000D01*
X79915300Y-130810000D02*
X81090600Y-131985300D01*
X81090600Y-131985300D02*
X84376800Y-131985300D01*
X84376800Y-131985300D02*
X85184700Y-131177400D01*
X85184700Y-131177400D02*
X85184700Y-130810000D01*
X95250000Y-107950000D02*
X94124700Y-107950000D01*
X86360000Y-107362300D02*
X93537000Y-107362300D01*
X93537000Y-107362300D02*
X94124700Y-107950000D01*
X86360000Y-107362300D02*
X86360000Y-106774700D01*
X86360000Y-107950000D02*
X86360000Y-107362300D01*
X78740000Y-105410000D02*
X79915300Y-105410000D01*
X79915300Y-105410000D02*
X81090700Y-104234600D01*
X81090700Y-104234600D02*
X84309400Y-104234600D01*
X84309400Y-104234600D02*
X85184700Y-105109900D01*
X85184700Y-105109900D02*
X85184700Y-105966800D01*
X85184700Y-105966800D02*
X85992600Y-106774700D01*
X85992600Y-106774700D02*
X86360000Y-106774700D01*
X78740000Y-105410000D02*
X78740000Y-107950000D01*
X78740000Y-120650000D02*
X78740000Y-123190000D01*
X78740000Y-115570000D02*
X78740000Y-118110000D01*
X78740000Y-110490000D02*
X78740000Y-113030000D01*
X78740000Y-107950000D02*
X78740000Y-110490000D01*
G04 #@! TO.N,/POT7*
X99060000Y-128270000D02*
X97934700Y-128270000D01*
X86360000Y-133350000D02*
X87535300Y-133350000D01*
X87535300Y-133350000D02*
X88710600Y-132174700D01*
X88710600Y-132174700D02*
X94030000Y-132174700D01*
X94030000Y-132174700D02*
X97934700Y-128270000D01*
G04 #@! TO.N,/POT1*
X99060000Y-120650000D02*
X97934700Y-120650000D01*
X86360000Y-123190000D02*
X87535300Y-123190000D01*
X87535300Y-123190000D02*
X88683000Y-124337700D01*
X88683000Y-124337700D02*
X94247000Y-124337700D01*
X94247000Y-124337700D02*
X97934700Y-120650000D01*
G04 #@! TO.N,/SLCT*
X83820000Y-113030000D02*
X83820000Y-114205300D01*
X76200000Y-125730000D02*
X77375300Y-125730000D01*
X77375300Y-125730000D02*
X77375300Y-125362600D01*
X77375300Y-125362600D02*
X78183200Y-124554700D01*
X78183200Y-124554700D02*
X79040000Y-124554700D01*
X79040000Y-124554700D02*
X82644700Y-120950000D01*
X82644700Y-120950000D02*
X82644700Y-115013200D01*
X82644700Y-115013200D02*
X83452600Y-114205300D01*
X83452600Y-114205300D02*
X83820000Y-114205300D01*
G04 #@! TO.N,/BUSY*
X86360000Y-110490000D02*
X85184700Y-110490000D01*
X76200000Y-120650000D02*
X77375300Y-120650000D01*
X77375300Y-120650000D02*
X77375300Y-120282600D01*
X77375300Y-120282600D02*
X78183200Y-119474700D01*
X78183200Y-119474700D02*
X79052100Y-119474700D01*
X79052100Y-119474700D02*
X80010000Y-118516800D01*
X80010000Y-118516800D02*
X80010000Y-115151100D01*
X80010000Y-115151100D02*
X83495800Y-111665300D01*
X83495800Y-111665300D02*
X84376800Y-111665300D01*
X84376800Y-111665300D02*
X85184700Y-110857400D01*
X85184700Y-110857400D02*
X85184700Y-110490000D01*
G04 #@! TO.N,/PRD6*
X83820000Y-105410000D02*
X83820000Y-106585300D01*
X76200000Y-113030000D02*
X77375300Y-113030000D01*
X77375300Y-113030000D02*
X77375300Y-113397300D01*
X77375300Y-113397300D02*
X78198600Y-114220600D01*
X78198600Y-114220600D02*
X79262400Y-114220600D01*
X79262400Y-114220600D02*
X82644700Y-110838300D01*
X82644700Y-110838300D02*
X82644700Y-107393200D01*
X82644700Y-107393200D02*
X83452600Y-106585300D01*
X83452600Y-106585300D02*
X83820000Y-106585300D01*
G04 #@! TO.N,/PRD2*
X83820000Y-100330000D02*
X82644700Y-100330000D01*
X76200000Y-102870000D02*
X77375300Y-102870000D01*
X77375300Y-102870000D02*
X77375300Y-103237300D01*
X77375300Y-103237300D02*
X78189000Y-104051000D01*
X78189000Y-104051000D02*
X79291000Y-104051000D01*
X79291000Y-104051000D02*
X82644700Y-100697300D01*
X82644700Y-100697300D02*
X82644700Y-100330000D01*
G04 #@! TO.N,/PRD1*
X86360000Y-97790000D02*
X85184700Y-97790000D01*
X76200000Y-100330000D02*
X77375300Y-100330000D01*
X77375300Y-100330000D02*
X77375300Y-100697300D01*
X77375300Y-100697300D02*
X78198600Y-101520600D01*
X78198600Y-101520600D02*
X80033700Y-101520600D01*
X80033700Y-101520600D02*
X82589000Y-98965300D01*
X82589000Y-98965300D02*
X84376800Y-98965300D01*
X84376800Y-98965300D02*
X85184700Y-98157400D01*
X85184700Y-98157400D02*
X85184700Y-97790000D01*
G04 #@! TO.N,/PRD0*
X83820000Y-97790000D02*
X82644700Y-97790000D01*
X76200000Y-97790000D02*
X77375300Y-97790000D01*
X77375300Y-97790000D02*
X77375300Y-98157300D01*
X77375300Y-98157300D02*
X78183300Y-98965300D01*
X78183300Y-98965300D02*
X81469400Y-98965300D01*
X81469400Y-98965300D02*
X82644700Y-97790000D01*
G04 #@! TO.N,/G3*
X106680000Y-102870000D02*
X107855300Y-102870000D01*
X107855300Y-102870000D02*
X109030600Y-104045300D01*
X109030600Y-104045300D02*
X120555300Y-104045300D01*
X120555300Y-104045300D02*
X123190000Y-106680000D01*
G04 #@! TO.N,/G2*
X104140000Y-102870000D02*
X105315300Y-102870000D01*
X105315300Y-102870000D02*
X105315300Y-102502700D01*
X105315300Y-102502700D02*
X106124400Y-101693600D01*
X106124400Y-101693600D02*
X122013600Y-101693600D01*
X122013600Y-101693600D02*
X123190000Y-102870000D01*
G04 #@! TO.N,/G1*
X106680000Y-100330000D02*
X121920000Y-100330000D01*
X121920000Y-100330000D02*
X123190000Y-99060000D01*
G04 #@! TO.N,/B3*
X106680000Y-97790000D02*
X123511600Y-97790000D01*
X123511600Y-97790000D02*
X132401600Y-106680000D01*
X132401600Y-106680000D02*
X134620000Y-106680000D01*
G04 #@! TO.N,/B2*
X105315300Y-97790000D02*
X105315300Y-97422700D01*
X105315300Y-97422700D02*
X106133600Y-96604400D01*
X106133600Y-96604400D02*
X126136000Y-96604400D01*
X126136000Y-96604400D02*
X132401600Y-102870000D01*
X132401600Y-102870000D02*
X134620000Y-102870000D01*
X104140000Y-97790000D02*
X105315300Y-97790000D01*
G04 #@! TO.N,/B1*
X106680000Y-95250000D02*
X107855300Y-95250000D01*
X107855300Y-95250000D02*
X108982200Y-94123100D01*
X108982200Y-94123100D02*
X127464700Y-94123100D01*
X127464700Y-94123100D02*
X132401600Y-99060000D01*
X132401600Y-99060000D02*
X134620000Y-99060000D01*
G04 #@! TO.N,/B0*
X104140000Y-95250000D02*
X105315300Y-95250000D01*
X105315300Y-95250000D02*
X105315300Y-94882700D01*
X105315300Y-94882700D02*
X106557000Y-93641000D01*
X106557000Y-93641000D02*
X133011000Y-93641000D01*
X133011000Y-93641000D02*
X134620000Y-95250000D01*
G04 #@! TO.N,/VSYNC*
X133350000Y-113030000D02*
X132224700Y-113030000D01*
X106680000Y-113030000D02*
X109224700Y-113030000D01*
X109224700Y-113030000D02*
X110350000Y-111904700D01*
X110350000Y-111904700D02*
X131099400Y-111904700D01*
X131099400Y-111904700D02*
X132224700Y-113030000D01*
G04 #@! TO.N,/R*
X119380000Y-106680000D02*
X120505300Y-106680000D01*
X139700000Y-124460000D02*
X139700000Y-123334700D01*
X139700000Y-123334700D02*
X139382800Y-123017500D01*
X139382800Y-123017500D02*
X139382800Y-113632400D01*
X139382800Y-113632400D02*
X143376100Y-109639100D01*
X143376100Y-109639100D02*
X143376100Y-106204500D01*
X143376100Y-106204500D02*
X142687600Y-105516000D01*
X142687600Y-105516000D02*
X139113500Y-105516000D01*
X139113500Y-105516000D02*
X136824200Y-107805300D01*
X136824200Y-107805300D02*
X121630600Y-107805300D01*
X121630600Y-107805300D02*
X120505300Y-106680000D01*
G04 #@! TO.N,/B*
X142240000Y-106680000D02*
X142240000Y-107805300D01*
X139700000Y-129040000D02*
X138560700Y-127900700D01*
X138560700Y-127900700D02*
X138560700Y-111484600D01*
X138560700Y-111484600D02*
X142240000Y-107805300D01*
G04 #@! TO.N,Net-(J5-Pad13)*
X143660000Y-129040000D02*
X144816500Y-130196500D01*
X144816500Y-130196500D02*
X144816500Y-134103000D01*
X144816500Y-134103000D02*
X144153900Y-134765600D01*
X144153900Y-134765600D02*
X134765600Y-134765600D01*
X134765600Y-134765600D02*
X133350000Y-133350000D01*
G04 #@! TO.N,Net-(J5-Pad0)*
X141750000Y-116275000D02*
X145284500Y-119809500D01*
X145284500Y-119809500D02*
X145284500Y-137740500D01*
X145284500Y-137740500D02*
X141750000Y-141275000D01*
G04 #@! TO.N,/D3*
X127000000Y-143510000D02*
X125874700Y-143510000D01*
X106680000Y-143510000D02*
X107855300Y-143510000D01*
X107855300Y-143510000D02*
X108980600Y-142384700D01*
X108980600Y-142384700D02*
X124749400Y-142384700D01*
X124749400Y-142384700D02*
X125874700Y-143510000D01*
G04 #@! TO.N,/D2*
X104140000Y-143510000D02*
X105315300Y-143510000D01*
X105315300Y-143510000D02*
X105315300Y-143142600D01*
X105315300Y-143142600D02*
X106123200Y-142334700D01*
X106123200Y-142334700D02*
X107455100Y-142334700D01*
X107455100Y-142334700D02*
X108819800Y-140970000D01*
X108819800Y-140970000D02*
X111760000Y-140970000D01*
G04 #@! TO.N,/D1*
X104140000Y-140970000D02*
X105315300Y-140970000D01*
X105315300Y-140970000D02*
X105315300Y-140602600D01*
X105315300Y-140602600D02*
X106123200Y-139794700D01*
X106123200Y-139794700D02*
X107455100Y-139794700D01*
X107455100Y-139794700D02*
X108819800Y-138430000D01*
X108819800Y-138430000D02*
X111760000Y-138430000D01*
G04 #@! TO.N,/D0*
X104140000Y-138430000D02*
X105315300Y-138430000D01*
X105315300Y-138430000D02*
X105315300Y-138062600D01*
X105315300Y-138062600D02*
X106123200Y-137254700D01*
X106123200Y-137254700D02*
X107455100Y-137254700D01*
X107455100Y-137254700D02*
X108819800Y-135890000D01*
X108819800Y-135890000D02*
X111760000Y-135890000D01*
G04 #@! TO.N,/D4*
X127000000Y-140970000D02*
X125874700Y-140970000D01*
X106680000Y-140970000D02*
X107855300Y-140970000D01*
X107855300Y-140970000D02*
X108980600Y-139844700D01*
X108980600Y-139844700D02*
X124749400Y-139844700D01*
X124749400Y-139844700D02*
X125874700Y-140970000D01*
G04 #@! TO.N,/D5*
X127000000Y-138430000D02*
X125874700Y-138430000D01*
X106680000Y-138430000D02*
X107855300Y-138430000D01*
X107855300Y-138430000D02*
X108980600Y-137304700D01*
X108980600Y-137304700D02*
X124749400Y-137304700D01*
X124749400Y-137304700D02*
X125874700Y-138430000D01*
G04 #@! TO.N,/D6*
X127000000Y-135890000D02*
X125874700Y-135890000D01*
X106680000Y-135890000D02*
X107855300Y-135890000D01*
X107855300Y-135890000D02*
X108980600Y-134764700D01*
X108980600Y-134764700D02*
X124749400Y-134764700D01*
X124749400Y-134764700D02*
X125874700Y-135890000D01*
G04 #@! TO.N,/D7*
X127000000Y-133350000D02*
X125874700Y-133350000D01*
X106680000Y-133350000D02*
X107855300Y-133350000D01*
X107855300Y-133350000D02*
X108980600Y-132224700D01*
X108980600Y-132224700D02*
X124749400Y-132224700D01*
X124749400Y-132224700D02*
X125874700Y-133350000D01*
G04 #@! TO.N,/CE_n*
X127000000Y-130810000D02*
X125874700Y-130810000D01*
X106680000Y-128270000D02*
X107855300Y-128270000D01*
X107855300Y-128270000D02*
X109270000Y-129684700D01*
X109270000Y-129684700D02*
X124749400Y-129684700D01*
X124749400Y-129684700D02*
X125874700Y-130810000D01*
G04 #@! TO.N,/OE_n*
X127000000Y-125730000D02*
X125874700Y-125730000D01*
X106680000Y-123190000D02*
X107855300Y-123190000D01*
X107855300Y-123190000D02*
X109270000Y-124604700D01*
X109270000Y-124604700D02*
X124749400Y-124604700D01*
X124749400Y-124604700D02*
X125874700Y-125730000D01*
G04 #@! TO.N,/A0*
X104140000Y-135890000D02*
X105315300Y-135890000D01*
X105315300Y-135890000D02*
X105315300Y-135522600D01*
X105315300Y-135522600D02*
X106123200Y-134714700D01*
X106123200Y-134714700D02*
X107455100Y-134714700D01*
X107455100Y-134714700D02*
X108819800Y-133350000D01*
X108819800Y-133350000D02*
X111760000Y-133350000D01*
G04 #@! TO.N,/A1*
X104140000Y-133350000D02*
X105315300Y-133350000D01*
X105315300Y-133350000D02*
X105315300Y-132982600D01*
X105315300Y-132982600D02*
X106123200Y-132174700D01*
X106123200Y-132174700D02*
X107564400Y-132174700D01*
X107564400Y-132174700D02*
X108929100Y-130810000D01*
X108929100Y-130810000D02*
X111760000Y-130810000D01*
G04 #@! TO.N,/A6*
X111760000Y-118110000D02*
X110634700Y-118110000D01*
X104140000Y-118110000D02*
X105315300Y-118110000D01*
X105315300Y-118110000D02*
X105315300Y-118477300D01*
X105315300Y-118477300D02*
X106138600Y-119300600D01*
X106138600Y-119300600D02*
X109444100Y-119300600D01*
X109444100Y-119300600D02*
X110634700Y-118110000D01*
G04 #@! TO.N,/A10*
X127000000Y-128270000D02*
X125874700Y-128270000D01*
X106680000Y-125730000D02*
X107855300Y-125730000D01*
X107855300Y-125730000D02*
X109270000Y-127144700D01*
X109270000Y-127144700D02*
X124749400Y-127144700D01*
X124749400Y-127144700D02*
X125874700Y-128270000D01*
G04 #@! TO.N,/A11*
X127000000Y-123190000D02*
X125874700Y-123190000D01*
X106680000Y-120650000D02*
X107855300Y-120650000D01*
X107855300Y-120650000D02*
X109270000Y-122064700D01*
X109270000Y-122064700D02*
X124749400Y-122064700D01*
X124749400Y-122064700D02*
X125874700Y-123190000D01*
G04 #@! TO.N,/A13*
X127000000Y-115570000D02*
X125874700Y-115570000D01*
X86360000Y-118110000D02*
X87535300Y-118110000D01*
X87535300Y-118110000D02*
X88710600Y-116934700D01*
X88710600Y-116934700D02*
X124510000Y-116934700D01*
X124510000Y-116934700D02*
X125874700Y-115570000D01*
G04 #@! TO.N,/A14*
X127000000Y-113030000D02*
X125874700Y-113030000D01*
X86360000Y-115570000D02*
X87535300Y-115570000D01*
X87535300Y-115570000D02*
X88710600Y-114394700D01*
X88710600Y-114394700D02*
X124510000Y-114394700D01*
X124510000Y-114394700D02*
X125874700Y-113030000D01*
G04 #@! TO.N,/A15*
X110634700Y-110490000D02*
X109270000Y-111854700D01*
X109270000Y-111854700D02*
X88710600Y-111854700D01*
X88710600Y-111854700D02*
X87535300Y-113030000D01*
X111760000Y-110490000D02*
X110634700Y-110490000D01*
X86360000Y-113030000D02*
X87535300Y-113030000D01*
G04 #@! TO.N,/LED*
X83820000Y-95250000D02*
X84995300Y-95250000D01*
X95250000Y-95250000D02*
X94074700Y-96425300D01*
X94074700Y-96425300D02*
X85803200Y-96425300D01*
X85803200Y-96425300D02*
X84995300Y-95617400D01*
X84995300Y-95617400D02*
X84995300Y-95250000D01*
G04 #@! TD*
M02*
