G04 #@! TF.GenerationSoftware,KiCad,Pcbnew,5.0.2-1.fc29*
G04 #@! TF.CreationDate,2019-02-04T20:54:41+00:00*
G04 #@! TF.ProjectId,daughter,64617567-6874-4657-922e-6b696361645f,rev?*
G04 #@! TF.SameCoordinates,Original*
G04 #@! TF.FileFunction,Legend,Top*
G04 #@! TF.FilePolarity,Positive*
%FSLAX46Y46*%
G04 Gerber Fmt 4.6, Leading zero omitted, Abs format (unit mm)*
G04 Created by KiCad (PCBNEW 5.0.2-1.fc29) date Mon 04 Feb 2019 20:54:41 GMT*
%MOMM*%
%LPD*%
G01*
G04 APERTURE LIST*
%ADD10C,0.120000*%
%ADD11C,0.150000*%
G04 APERTURE END LIST*
D10*
G04 #@! TO.C,R14*
X132310000Y-120110000D02*
X131980000Y-120110000D01*
X131980000Y-120110000D02*
X131980000Y-113570000D01*
X131980000Y-113570000D02*
X132310000Y-113570000D01*
X134390000Y-120110000D02*
X134720000Y-120110000D01*
X134720000Y-120110000D02*
X134720000Y-113570000D01*
X134720000Y-113570000D02*
X134390000Y-113570000D01*
G04 #@! TO.C,R11*
X141700000Y-100430000D02*
X141700000Y-100100000D01*
X135160000Y-100430000D02*
X141700000Y-100430000D01*
X135160000Y-100100000D02*
X135160000Y-100430000D01*
X141700000Y-97690000D02*
X141700000Y-98020000D01*
X135160000Y-97690000D02*
X141700000Y-97690000D01*
X135160000Y-98020000D02*
X135160000Y-97690000D01*
G04 #@! TO.C,R5*
X123730000Y-105640000D02*
X123730000Y-105310000D01*
X123730000Y-105310000D02*
X130270000Y-105310000D01*
X130270000Y-105310000D02*
X130270000Y-105640000D01*
X123730000Y-107720000D02*
X123730000Y-108050000D01*
X123730000Y-108050000D02*
X130270000Y-108050000D01*
X130270000Y-108050000D02*
X130270000Y-107720000D01*
G04 #@! TO.C,R3*
X112300000Y-98020000D02*
X112300000Y-97690000D01*
X112300000Y-97690000D02*
X118840000Y-97690000D01*
X118840000Y-97690000D02*
X118840000Y-98020000D01*
X112300000Y-100100000D02*
X112300000Y-100430000D01*
X112300000Y-100430000D02*
X118840000Y-100430000D01*
X118840000Y-100430000D02*
X118840000Y-100100000D01*
G04 #@! TO.C,R4*
X118840000Y-96620000D02*
X118840000Y-96290000D01*
X112300000Y-96620000D02*
X118840000Y-96620000D01*
X112300000Y-96290000D02*
X112300000Y-96620000D01*
X118840000Y-93880000D02*
X118840000Y-94210000D01*
X112300000Y-93880000D02*
X118840000Y-93880000D01*
X112300000Y-94210000D02*
X112300000Y-93880000D01*
G04 #@! TO.C,U1*
X120380000Y-109160000D02*
G75*
G02X118380000Y-109160000I-1000000J0D01*
G01*
X118380000Y-109160000D02*
X112920000Y-109160000D01*
X112920000Y-109160000D02*
X112920000Y-144840000D01*
X112920000Y-144840000D02*
X125840000Y-144840000D01*
X125840000Y-144840000D02*
X125840000Y-109160000D01*
X125840000Y-109160000D02*
X120380000Y-109160000D01*
X110430000Y-109100000D02*
X110430000Y-144900000D01*
X110430000Y-144900000D02*
X128330000Y-144900000D01*
X128330000Y-144900000D02*
X128330000Y-109100000D01*
X128330000Y-109100000D02*
X110430000Y-109100000D01*
G04 #@! TO.C,R6*
X130270000Y-104240000D02*
X130270000Y-103910000D01*
X123730000Y-104240000D02*
X130270000Y-104240000D01*
X123730000Y-103910000D02*
X123730000Y-104240000D01*
X130270000Y-101500000D02*
X130270000Y-101830000D01*
X123730000Y-101500000D02*
X130270000Y-101500000D01*
X123730000Y-101830000D02*
X123730000Y-101500000D01*
G04 #@! TO.C,R10*
X135160000Y-101830000D02*
X135160000Y-101500000D01*
X135160000Y-101500000D02*
X141700000Y-101500000D01*
X141700000Y-101500000D02*
X141700000Y-101830000D01*
X135160000Y-103910000D02*
X135160000Y-104240000D01*
X135160000Y-104240000D02*
X141700000Y-104240000D01*
X141700000Y-104240000D02*
X141700000Y-103910000D01*
G04 #@! TO.C,J1*
X96250000Y-119320000D02*
G75*
G02X94250000Y-119320000I-1000000J0D01*
G01*
X94250000Y-119320000D02*
X92600000Y-119320000D01*
X92600000Y-119320000D02*
X92600000Y-144840000D01*
X92600000Y-144840000D02*
X97900000Y-144840000D01*
X97900000Y-144840000D02*
X97900000Y-119320000D01*
X97900000Y-119320000D02*
X96250000Y-119320000D01*
X90110000Y-119260000D02*
X90110000Y-144900000D01*
X90110000Y-144900000D02*
X100390000Y-144900000D01*
X100390000Y-144900000D02*
X100390000Y-119260000D01*
X100390000Y-119260000D02*
X90110000Y-119260000D01*
G04 #@! TO.C,J4*
X102810000Y-144840000D02*
X108010000Y-144840000D01*
X102810000Y-96520000D02*
X102810000Y-144840000D01*
X108010000Y-93920000D02*
X108010000Y-144840000D01*
X102810000Y-96520000D02*
X105410000Y-96520000D01*
X105410000Y-96520000D02*
X105410000Y-93920000D01*
X105410000Y-93920000D02*
X108010000Y-93920000D01*
X102810000Y-95250000D02*
X102810000Y-93920000D01*
X102810000Y-93920000D02*
X104140000Y-93920000D01*
G04 #@! TO.C,R9*
X141700000Y-108050000D02*
X141700000Y-107720000D01*
X135160000Y-108050000D02*
X141700000Y-108050000D01*
X135160000Y-107720000D02*
X135160000Y-108050000D01*
X141700000Y-105310000D02*
X141700000Y-105640000D01*
X135160000Y-105310000D02*
X141700000Y-105310000D01*
X135160000Y-105640000D02*
X135160000Y-105310000D01*
G04 #@! TO.C,R13*
X134720000Y-126270000D02*
X134390000Y-126270000D01*
X134720000Y-132810000D02*
X134720000Y-126270000D01*
X134390000Y-132810000D02*
X134720000Y-132810000D01*
X131980000Y-126270000D02*
X132310000Y-126270000D01*
X131980000Y-132810000D02*
X131980000Y-126270000D01*
X132310000Y-132810000D02*
X131980000Y-132810000D01*
G04 #@! TO.C,J2*
X82490000Y-93920000D02*
X83820000Y-93920000D01*
X82490000Y-95250000D02*
X82490000Y-93920000D01*
X85090000Y-93920000D02*
X87690000Y-93920000D01*
X85090000Y-96520000D02*
X85090000Y-93920000D01*
X82490000Y-96520000D02*
X85090000Y-96520000D01*
X87690000Y-93920000D02*
X87690000Y-144840000D01*
X82490000Y-96520000D02*
X82490000Y-144840000D01*
X82490000Y-144840000D02*
X87690000Y-144840000D01*
G04 #@! TO.C,R12*
X135160000Y-94210000D02*
X135160000Y-93880000D01*
X135160000Y-93880000D02*
X141700000Y-93880000D01*
X141700000Y-93880000D02*
X141700000Y-94210000D01*
X135160000Y-96290000D02*
X135160000Y-96620000D01*
X135160000Y-96620000D02*
X141700000Y-96620000D01*
X141700000Y-96620000D02*
X141700000Y-96290000D01*
G04 #@! TO.C,J5*
X146630000Y-144260000D02*
X138030000Y-144260000D01*
X138030000Y-144260000D02*
X138030000Y-113290000D01*
X138030000Y-113290000D02*
X146630000Y-113290000D01*
X137135662Y-124710000D02*
X137135662Y-124210000D01*
X137135662Y-124210000D02*
X137568675Y-124460000D01*
X137568675Y-124460000D02*
X137135662Y-124710000D01*
G04 #@! TO.C,R8*
X130270000Y-96620000D02*
X130270000Y-96290000D01*
X123730000Y-96620000D02*
X130270000Y-96620000D01*
X123730000Y-96290000D02*
X123730000Y-96620000D01*
X130270000Y-93880000D02*
X130270000Y-94210000D01*
X123730000Y-93880000D02*
X130270000Y-93880000D01*
X123730000Y-94210000D02*
X123730000Y-93880000D01*
G04 #@! TO.C,R7*
X123730000Y-98020000D02*
X123730000Y-97690000D01*
X123730000Y-97690000D02*
X130270000Y-97690000D01*
X130270000Y-97690000D02*
X130270000Y-98020000D01*
X123730000Y-100100000D02*
X123730000Y-100430000D01*
X123730000Y-100430000D02*
X130270000Y-100430000D01*
X130270000Y-100430000D02*
X130270000Y-100100000D01*
G04 #@! TO.C,R2*
X118840000Y-104240000D02*
X118840000Y-103910000D01*
X112300000Y-104240000D02*
X118840000Y-104240000D01*
X112300000Y-103910000D02*
X112300000Y-104240000D01*
X118840000Y-101500000D02*
X118840000Y-101830000D01*
X112300000Y-101500000D02*
X118840000Y-101500000D01*
X112300000Y-101830000D02*
X112300000Y-101500000D01*
G04 #@! TO.C,R1*
X112300000Y-105640000D02*
X112300000Y-105310000D01*
X112300000Y-105310000D02*
X118840000Y-105310000D01*
X118840000Y-105310000D02*
X118840000Y-105640000D01*
X112300000Y-107720000D02*
X112300000Y-108050000D01*
X112300000Y-108050000D02*
X118840000Y-108050000D01*
X118840000Y-108050000D02*
X118840000Y-107720000D01*
G04 #@! TO.C,J3*
X74870000Y-93920000D02*
X76200000Y-93920000D01*
X74870000Y-95250000D02*
X74870000Y-93920000D01*
X77470000Y-93920000D02*
X80070000Y-93920000D01*
X77470000Y-96520000D02*
X77470000Y-93920000D01*
X74870000Y-96520000D02*
X77470000Y-96520000D01*
X80070000Y-93920000D02*
X80070000Y-139760000D01*
X74870000Y-96520000D02*
X74870000Y-139760000D01*
X74870000Y-139760000D02*
X80070000Y-139760000D01*
G04 #@! TO.C,D1*
X94169276Y-94276758D02*
G75*
G03X93851251Y-98580000I1080724J-2243242D01*
G01*
X96330724Y-94276758D02*
G75*
G02X96648749Y-98580000I-1080724J-2243242D01*
G01*
X94169039Y-94837287D02*
G75*
G03X94170000Y-98203330I1080961J-1682713D01*
G01*
X96330961Y-94837287D02*
G75*
G02X96330000Y-98203330I-1080961J-1682713D01*
G01*
X93851000Y-98580000D02*
X94170000Y-98580000D01*
X96330000Y-98580000D02*
X96649000Y-98580000D01*
G04 #@! TO.C,R15*
X96290000Y-100870000D02*
X96620000Y-100870000D01*
X96620000Y-100870000D02*
X96620000Y-107410000D01*
X96620000Y-107410000D02*
X96290000Y-107410000D01*
X94210000Y-100870000D02*
X93880000Y-100870000D01*
X93880000Y-100870000D02*
X93880000Y-107410000D01*
X93880000Y-107410000D02*
X94210000Y-107410000D01*
G04 #@! TO.C,R14*
D11*
X131432380Y-117482857D02*
X130956190Y-117816190D01*
X131432380Y-118054285D02*
X130432380Y-118054285D01*
X130432380Y-117673333D01*
X130480000Y-117578095D01*
X130527619Y-117530476D01*
X130622857Y-117482857D01*
X130765714Y-117482857D01*
X130860952Y-117530476D01*
X130908571Y-117578095D01*
X130956190Y-117673333D01*
X130956190Y-118054285D01*
X131432380Y-116530476D02*
X131432380Y-117101904D01*
X131432380Y-116816190D02*
X130432380Y-116816190D01*
X130575238Y-116911428D01*
X130670476Y-117006666D01*
X130718095Y-117101904D01*
X130765714Y-115673333D02*
X131432380Y-115673333D01*
X130384761Y-115911428D02*
X131099047Y-116149523D01*
X131099047Y-115530476D01*
G04 #@! TO.C,R11*
X137787142Y-97142380D02*
X137453809Y-96666190D01*
X137215714Y-97142380D02*
X137215714Y-96142380D01*
X137596666Y-96142380D01*
X137691904Y-96190000D01*
X137739523Y-96237619D01*
X137787142Y-96332857D01*
X137787142Y-96475714D01*
X137739523Y-96570952D01*
X137691904Y-96618571D01*
X137596666Y-96666190D01*
X137215714Y-96666190D01*
X138739523Y-97142380D02*
X138168095Y-97142380D01*
X138453809Y-97142380D02*
X138453809Y-96142380D01*
X138358571Y-96285238D01*
X138263333Y-96380476D01*
X138168095Y-96428095D01*
X139691904Y-97142380D02*
X139120476Y-97142380D01*
X139406190Y-97142380D02*
X139406190Y-96142380D01*
X139310952Y-96285238D01*
X139215714Y-96380476D01*
X139120476Y-96428095D01*
G04 #@! TO.C,R5*
X126833333Y-104762380D02*
X126500000Y-104286190D01*
X126261904Y-104762380D02*
X126261904Y-103762380D01*
X126642857Y-103762380D01*
X126738095Y-103810000D01*
X126785714Y-103857619D01*
X126833333Y-103952857D01*
X126833333Y-104095714D01*
X126785714Y-104190952D01*
X126738095Y-104238571D01*
X126642857Y-104286190D01*
X126261904Y-104286190D01*
X127738095Y-103762380D02*
X127261904Y-103762380D01*
X127214285Y-104238571D01*
X127261904Y-104190952D01*
X127357142Y-104143333D01*
X127595238Y-104143333D01*
X127690476Y-104190952D01*
X127738095Y-104238571D01*
X127785714Y-104333809D01*
X127785714Y-104571904D01*
X127738095Y-104667142D01*
X127690476Y-104714761D01*
X127595238Y-104762380D01*
X127357142Y-104762380D01*
X127261904Y-104714761D01*
X127214285Y-104667142D01*
G04 #@! TO.C,R3*
X115403333Y-97142380D02*
X115070000Y-96666190D01*
X114831904Y-97142380D02*
X114831904Y-96142380D01*
X115212857Y-96142380D01*
X115308095Y-96190000D01*
X115355714Y-96237619D01*
X115403333Y-96332857D01*
X115403333Y-96475714D01*
X115355714Y-96570952D01*
X115308095Y-96618571D01*
X115212857Y-96666190D01*
X114831904Y-96666190D01*
X115736666Y-96142380D02*
X116355714Y-96142380D01*
X116022380Y-96523333D01*
X116165238Y-96523333D01*
X116260476Y-96570952D01*
X116308095Y-96618571D01*
X116355714Y-96713809D01*
X116355714Y-96951904D01*
X116308095Y-97047142D01*
X116260476Y-97094761D01*
X116165238Y-97142380D01*
X115879523Y-97142380D01*
X115784285Y-97094761D01*
X115736666Y-97047142D01*
G04 #@! TO.C,R4*
X115403333Y-93332380D02*
X115070000Y-92856190D01*
X114831904Y-93332380D02*
X114831904Y-92332380D01*
X115212857Y-92332380D01*
X115308095Y-92380000D01*
X115355714Y-92427619D01*
X115403333Y-92522857D01*
X115403333Y-92665714D01*
X115355714Y-92760952D01*
X115308095Y-92808571D01*
X115212857Y-92856190D01*
X114831904Y-92856190D01*
X116260476Y-92665714D02*
X116260476Y-93332380D01*
X116022380Y-92284761D02*
X115784285Y-92999047D01*
X116403333Y-92999047D01*
G04 #@! TO.C,U1*
X118618095Y-107612380D02*
X118618095Y-108421904D01*
X118665714Y-108517142D01*
X118713333Y-108564761D01*
X118808571Y-108612380D01*
X118999047Y-108612380D01*
X119094285Y-108564761D01*
X119141904Y-108517142D01*
X119189523Y-108421904D01*
X119189523Y-107612380D01*
X120189523Y-108612380D02*
X119618095Y-108612380D01*
X119903809Y-108612380D02*
X119903809Y-107612380D01*
X119808571Y-107755238D01*
X119713333Y-107850476D01*
X119618095Y-107898095D01*
G04 #@! TO.C,R6*
X126833333Y-100952380D02*
X126500000Y-100476190D01*
X126261904Y-100952380D02*
X126261904Y-99952380D01*
X126642857Y-99952380D01*
X126738095Y-100000000D01*
X126785714Y-100047619D01*
X126833333Y-100142857D01*
X126833333Y-100285714D01*
X126785714Y-100380952D01*
X126738095Y-100428571D01*
X126642857Y-100476190D01*
X126261904Y-100476190D01*
X127690476Y-99952380D02*
X127500000Y-99952380D01*
X127404761Y-100000000D01*
X127357142Y-100047619D01*
X127261904Y-100190476D01*
X127214285Y-100380952D01*
X127214285Y-100761904D01*
X127261904Y-100857142D01*
X127309523Y-100904761D01*
X127404761Y-100952380D01*
X127595238Y-100952380D01*
X127690476Y-100904761D01*
X127738095Y-100857142D01*
X127785714Y-100761904D01*
X127785714Y-100523809D01*
X127738095Y-100428571D01*
X127690476Y-100380952D01*
X127595238Y-100333333D01*
X127404761Y-100333333D01*
X127309523Y-100380952D01*
X127261904Y-100428571D01*
X127214285Y-100523809D01*
G04 #@! TO.C,R10*
X137787142Y-100952380D02*
X137453809Y-100476190D01*
X137215714Y-100952380D02*
X137215714Y-99952380D01*
X137596666Y-99952380D01*
X137691904Y-100000000D01*
X137739523Y-100047619D01*
X137787142Y-100142857D01*
X137787142Y-100285714D01*
X137739523Y-100380952D01*
X137691904Y-100428571D01*
X137596666Y-100476190D01*
X137215714Y-100476190D01*
X138739523Y-100952380D02*
X138168095Y-100952380D01*
X138453809Y-100952380D02*
X138453809Y-99952380D01*
X138358571Y-100095238D01*
X138263333Y-100190476D01*
X138168095Y-100238095D01*
X139358571Y-99952380D02*
X139453809Y-99952380D01*
X139549047Y-100000000D01*
X139596666Y-100047619D01*
X139644285Y-100142857D01*
X139691904Y-100333333D01*
X139691904Y-100571428D01*
X139644285Y-100761904D01*
X139596666Y-100857142D01*
X139549047Y-100904761D01*
X139453809Y-100952380D01*
X139358571Y-100952380D01*
X139263333Y-100904761D01*
X139215714Y-100857142D01*
X139168095Y-100761904D01*
X139120476Y-100571428D01*
X139120476Y-100333333D01*
X139168095Y-100142857D01*
X139215714Y-100047619D01*
X139263333Y-100000000D01*
X139358571Y-99952380D01*
G04 #@! TO.C,J1*
X94916666Y-117772380D02*
X94916666Y-118486666D01*
X94869047Y-118629523D01*
X94773809Y-118724761D01*
X94630952Y-118772380D01*
X94535714Y-118772380D01*
X95916666Y-118772380D02*
X95345238Y-118772380D01*
X95630952Y-118772380D02*
X95630952Y-117772380D01*
X95535714Y-117915238D01*
X95440476Y-118010476D01*
X95345238Y-118058095D01*
G04 #@! TO.C,J4*
X105076666Y-92372380D02*
X105076666Y-93086666D01*
X105029047Y-93229523D01*
X104933809Y-93324761D01*
X104790952Y-93372380D01*
X104695714Y-93372380D01*
X105981428Y-92705714D02*
X105981428Y-93372380D01*
X105743333Y-92324761D02*
X105505238Y-93039047D01*
X106124285Y-93039047D01*
G04 #@! TO.C,R9*
X138263333Y-104762380D02*
X137930000Y-104286190D01*
X137691904Y-104762380D02*
X137691904Y-103762380D01*
X138072857Y-103762380D01*
X138168095Y-103810000D01*
X138215714Y-103857619D01*
X138263333Y-103952857D01*
X138263333Y-104095714D01*
X138215714Y-104190952D01*
X138168095Y-104238571D01*
X138072857Y-104286190D01*
X137691904Y-104286190D01*
X138739523Y-104762380D02*
X138930000Y-104762380D01*
X139025238Y-104714761D01*
X139072857Y-104667142D01*
X139168095Y-104524285D01*
X139215714Y-104333809D01*
X139215714Y-103952857D01*
X139168095Y-103857619D01*
X139120476Y-103810000D01*
X139025238Y-103762380D01*
X138834761Y-103762380D01*
X138739523Y-103810000D01*
X138691904Y-103857619D01*
X138644285Y-103952857D01*
X138644285Y-104190952D01*
X138691904Y-104286190D01*
X138739523Y-104333809D01*
X138834761Y-104381428D01*
X139025238Y-104381428D01*
X139120476Y-104333809D01*
X139168095Y-104286190D01*
X139215714Y-104190952D01*
G04 #@! TO.C,R13*
X131432380Y-130182857D02*
X130956190Y-130516190D01*
X131432380Y-130754285D02*
X130432380Y-130754285D01*
X130432380Y-130373333D01*
X130480000Y-130278095D01*
X130527619Y-130230476D01*
X130622857Y-130182857D01*
X130765714Y-130182857D01*
X130860952Y-130230476D01*
X130908571Y-130278095D01*
X130956190Y-130373333D01*
X130956190Y-130754285D01*
X131432380Y-129230476D02*
X131432380Y-129801904D01*
X131432380Y-129516190D02*
X130432380Y-129516190D01*
X130575238Y-129611428D01*
X130670476Y-129706666D01*
X130718095Y-129801904D01*
X130432380Y-128897142D02*
X130432380Y-128278095D01*
X130813333Y-128611428D01*
X130813333Y-128468571D01*
X130860952Y-128373333D01*
X130908571Y-128325714D01*
X131003809Y-128278095D01*
X131241904Y-128278095D01*
X131337142Y-128325714D01*
X131384761Y-128373333D01*
X131432380Y-128468571D01*
X131432380Y-128754285D01*
X131384761Y-128849523D01*
X131337142Y-128897142D01*
G04 #@! TO.C,J2*
X84756666Y-92372380D02*
X84756666Y-93086666D01*
X84709047Y-93229523D01*
X84613809Y-93324761D01*
X84470952Y-93372380D01*
X84375714Y-93372380D01*
X85185238Y-92467619D02*
X85232857Y-92420000D01*
X85328095Y-92372380D01*
X85566190Y-92372380D01*
X85661428Y-92420000D01*
X85709047Y-92467619D01*
X85756666Y-92562857D01*
X85756666Y-92658095D01*
X85709047Y-92800952D01*
X85137619Y-93372380D01*
X85756666Y-93372380D01*
G04 #@! TO.C,R12*
X137787142Y-93332380D02*
X137453809Y-92856190D01*
X137215714Y-93332380D02*
X137215714Y-92332380D01*
X137596666Y-92332380D01*
X137691904Y-92380000D01*
X137739523Y-92427619D01*
X137787142Y-92522857D01*
X137787142Y-92665714D01*
X137739523Y-92760952D01*
X137691904Y-92808571D01*
X137596666Y-92856190D01*
X137215714Y-92856190D01*
X138739523Y-93332380D02*
X138168095Y-93332380D01*
X138453809Y-93332380D02*
X138453809Y-92332380D01*
X138358571Y-92475238D01*
X138263333Y-92570476D01*
X138168095Y-92618095D01*
X139120476Y-92427619D02*
X139168095Y-92380000D01*
X139263333Y-92332380D01*
X139501428Y-92332380D01*
X139596666Y-92380000D01*
X139644285Y-92427619D01*
X139691904Y-92522857D01*
X139691904Y-92618095D01*
X139644285Y-92760952D01*
X139072857Y-93332380D01*
X139691904Y-93332380D01*
G04 #@! TO.C,J5*
X136542380Y-129108333D02*
X137256666Y-129108333D01*
X137399523Y-129155952D01*
X137494761Y-129251190D01*
X137542380Y-129394047D01*
X137542380Y-129489285D01*
X136542380Y-128155952D02*
X136542380Y-128632142D01*
X137018571Y-128679761D01*
X136970952Y-128632142D01*
X136923333Y-128536904D01*
X136923333Y-128298809D01*
X136970952Y-128203571D01*
X137018571Y-128155952D01*
X137113809Y-128108333D01*
X137351904Y-128108333D01*
X137447142Y-128155952D01*
X137494761Y-128203571D01*
X137542380Y-128298809D01*
X137542380Y-128536904D01*
X137494761Y-128632142D01*
X137447142Y-128679761D01*
G04 #@! TO.C,R8*
X126833333Y-93332380D02*
X126500000Y-92856190D01*
X126261904Y-93332380D02*
X126261904Y-92332380D01*
X126642857Y-92332380D01*
X126738095Y-92380000D01*
X126785714Y-92427619D01*
X126833333Y-92522857D01*
X126833333Y-92665714D01*
X126785714Y-92760952D01*
X126738095Y-92808571D01*
X126642857Y-92856190D01*
X126261904Y-92856190D01*
X127404761Y-92760952D02*
X127309523Y-92713333D01*
X127261904Y-92665714D01*
X127214285Y-92570476D01*
X127214285Y-92522857D01*
X127261904Y-92427619D01*
X127309523Y-92380000D01*
X127404761Y-92332380D01*
X127595238Y-92332380D01*
X127690476Y-92380000D01*
X127738095Y-92427619D01*
X127785714Y-92522857D01*
X127785714Y-92570476D01*
X127738095Y-92665714D01*
X127690476Y-92713333D01*
X127595238Y-92760952D01*
X127404761Y-92760952D01*
X127309523Y-92808571D01*
X127261904Y-92856190D01*
X127214285Y-92951428D01*
X127214285Y-93141904D01*
X127261904Y-93237142D01*
X127309523Y-93284761D01*
X127404761Y-93332380D01*
X127595238Y-93332380D01*
X127690476Y-93284761D01*
X127738095Y-93237142D01*
X127785714Y-93141904D01*
X127785714Y-92951428D01*
X127738095Y-92856190D01*
X127690476Y-92808571D01*
X127595238Y-92760952D01*
G04 #@! TO.C,R7*
X126833333Y-97142380D02*
X126500000Y-96666190D01*
X126261904Y-97142380D02*
X126261904Y-96142380D01*
X126642857Y-96142380D01*
X126738095Y-96190000D01*
X126785714Y-96237619D01*
X126833333Y-96332857D01*
X126833333Y-96475714D01*
X126785714Y-96570952D01*
X126738095Y-96618571D01*
X126642857Y-96666190D01*
X126261904Y-96666190D01*
X127166666Y-96142380D02*
X127833333Y-96142380D01*
X127404761Y-97142380D01*
G04 #@! TO.C,R2*
X115403333Y-100952380D02*
X115070000Y-100476190D01*
X114831904Y-100952380D02*
X114831904Y-99952380D01*
X115212857Y-99952380D01*
X115308095Y-100000000D01*
X115355714Y-100047619D01*
X115403333Y-100142857D01*
X115403333Y-100285714D01*
X115355714Y-100380952D01*
X115308095Y-100428571D01*
X115212857Y-100476190D01*
X114831904Y-100476190D01*
X115784285Y-100047619D02*
X115831904Y-100000000D01*
X115927142Y-99952380D01*
X116165238Y-99952380D01*
X116260476Y-100000000D01*
X116308095Y-100047619D01*
X116355714Y-100142857D01*
X116355714Y-100238095D01*
X116308095Y-100380952D01*
X115736666Y-100952380D01*
X116355714Y-100952380D01*
G04 #@! TO.C,R1*
X115403333Y-104762380D02*
X115070000Y-104286190D01*
X114831904Y-104762380D02*
X114831904Y-103762380D01*
X115212857Y-103762380D01*
X115308095Y-103810000D01*
X115355714Y-103857619D01*
X115403333Y-103952857D01*
X115403333Y-104095714D01*
X115355714Y-104190952D01*
X115308095Y-104238571D01*
X115212857Y-104286190D01*
X114831904Y-104286190D01*
X116355714Y-104762380D02*
X115784285Y-104762380D01*
X116070000Y-104762380D02*
X116070000Y-103762380D01*
X115974761Y-103905238D01*
X115879523Y-104000476D01*
X115784285Y-104048095D01*
G04 #@! TO.C,J3*
X77136666Y-92372380D02*
X77136666Y-93086666D01*
X77089047Y-93229523D01*
X76993809Y-93324761D01*
X76850952Y-93372380D01*
X76755714Y-93372380D01*
X77517619Y-92372380D02*
X78136666Y-92372380D01*
X77803333Y-92753333D01*
X77946190Y-92753333D01*
X78041428Y-92800952D01*
X78089047Y-92848571D01*
X78136666Y-92943809D01*
X78136666Y-93181904D01*
X78089047Y-93277142D01*
X78041428Y-93324761D01*
X77946190Y-93372380D01*
X77660476Y-93372380D01*
X77565238Y-93324761D01*
X77517619Y-93277142D01*
G04 #@! TO.C,D1*
X92242380Y-97258095D02*
X91242380Y-97258095D01*
X91242380Y-97020000D01*
X91290000Y-96877142D01*
X91385238Y-96781904D01*
X91480476Y-96734285D01*
X91670952Y-96686666D01*
X91813809Y-96686666D01*
X92004285Y-96734285D01*
X92099523Y-96781904D01*
X92194761Y-96877142D01*
X92242380Y-97020000D01*
X92242380Y-97258095D01*
X92242380Y-95734285D02*
X92242380Y-96305714D01*
X92242380Y-96020000D02*
X91242380Y-96020000D01*
X91385238Y-96115238D01*
X91480476Y-96210476D01*
X91528095Y-96305714D01*
G04 #@! TO.C,R15*
X98072380Y-104782857D02*
X97596190Y-105116190D01*
X98072380Y-105354285D02*
X97072380Y-105354285D01*
X97072380Y-104973333D01*
X97120000Y-104878095D01*
X97167619Y-104830476D01*
X97262857Y-104782857D01*
X97405714Y-104782857D01*
X97500952Y-104830476D01*
X97548571Y-104878095D01*
X97596190Y-104973333D01*
X97596190Y-105354285D01*
X98072380Y-103830476D02*
X98072380Y-104401904D01*
X98072380Y-104116190D02*
X97072380Y-104116190D01*
X97215238Y-104211428D01*
X97310476Y-104306666D01*
X97358095Y-104401904D01*
X97072380Y-102925714D02*
X97072380Y-103401904D01*
X97548571Y-103449523D01*
X97500952Y-103401904D01*
X97453333Y-103306666D01*
X97453333Y-103068571D01*
X97500952Y-102973333D01*
X97548571Y-102925714D01*
X97643809Y-102878095D01*
X97881904Y-102878095D01*
X97977142Y-102925714D01*
X98024761Y-102973333D01*
X98072380Y-103068571D01*
X98072380Y-103306666D01*
X98024761Y-103401904D01*
X97977142Y-103449523D01*
G04 #@! TD*
M02*
